<?xml version="1.0" encoding="UTF-8"?>
<svg xmlns="http://www.w3.org/2000/svg" xmlns:xlink="http://www.w3.org/1999/xlink" width="800px" height="107px" viewBox="0 0 805 107" version="1.1">
<g id="surface1">
<path style=" stroke:none;fill-rule:nonzero;fill:rgb(100%,100%,100%);fill-opacity:1;" d="M 53.464844 0.871094 C 24.339844 0.871094 0.695312 24.488281 0.695312 53.675781 C 0.695312 82.859375 24.296875 106.476562 53.464844 106.476562 C 82.628906 106.476562 106.230469 82.859375 106.230469 53.675781 C 106.230469 24.488281 82.585938 0.871094 53.464844 0.871094 Z M 53.464844 94.820312 C 30.773438 94.820312 12.34375 76.378906 12.34375 53.675781 C 12.34375 30.96875 30.773438 12.527344 53.464844 12.527344 C 76.152344 12.527344 94.582031 30.96875 94.582031 53.675781 C 94.582031 76.378906 76.152344 94.820312 53.464844 94.820312 Z M 53.464844 94.820312 "/>
<path style=" stroke:none;fill-rule:nonzero;fill:rgb(23.137255%,29.411766%,33.725491%);fill-opacity:1;" d="M 95.539062 35.882812 C 93.234375 30.445312 89.933594 25.53125 85.757812 21.355469 C 81.585938 17.179688 76.675781 13.875 71.242188 11.570312 C 65.589844 9.175781 59.636719 7.960938 53.464844 7.960938 C 47.292969 7.960938 41.335938 9.175781 35.6875 11.570312 C 30.253906 13.875 25.339844 17.179688 21.167969 21.355469 C 16.996094 25.53125 13.691406 30.445312 11.386719 35.882812 C 8.996094 41.539062 7.78125 47.496094 7.78125 53.675781 C 7.78125 59.851562 8.996094 65.808594 11.386719 71.464844 C 13.691406 76.902344 16.996094 81.816406 21.167969 85.992188 C 25.339844 90.167969 30.253906 93.472656 35.6875 95.777344 C 41.335938 98.171875 47.292969 99.386719 53.464844 99.386719 C 59.636719 99.386719 65.589844 98.171875 71.242188 95.777344 C 76.675781 93.472656 81.585938 90.167969 85.757812 85.992188 C 89.933594 81.816406 93.234375 76.902344 95.539062 71.464844 C 97.929688 65.808594 99.148438 59.851562 99.148438 53.675781 C 99.148438 47.496094 97.929688 41.539062 95.539062 35.882812 Z M 90.757812 66.941406 L 74.632812 50.804688 L 89.0625 36.363281 C 91.628906 41.582031 93.019531 47.453125 93.019531 53.675781 C 93.019531 59.894531 92.191406 62.808594 90.714844 66.984375 Z M 89.105469 36.363281 C 88.890625 35.882812 88.628906 35.449219 88.410156 34.972656 C 88.671875 35.449219 88.890625 35.882812 89.105469 36.363281 Z M 88.367188 34.925781 C 88.105469 34.492188 87.890625 34.058594 87.628906 33.578125 C 87.890625 34.015625 88.148438 34.449219 88.367188 34.925781 Z M 87.585938 33.535156 C 87.0625 32.664062 86.5 31.796875 85.933594 30.925781 C 86.542969 31.753906 87.0625 32.621094 87.585938 33.535156 Z M 53.464844 14.050781 C 66.894531 14.050781 78.761719 20.746094 85.890625 30.96875 L 67.722656 49.152344 C 59.851562 57.023438 47.03125 57.023438 39.164062 49.152344 L 20.996094 30.96875 C 28.167969 20.746094 40.03125 14.050781 53.421875 14.050781 Z M 21.039062 30.925781 C 20.429688 31.753906 19.90625 32.621094 19.386719 33.535156 C 19.90625 32.664062 20.472656 31.796875 21.039062 30.925781 Z M 19.300781 33.621094 C 19.039062 34.058594 18.777344 34.492188 18.558594 34.972656 C 18.820312 34.535156 19.039062 34.101562 19.300781 33.621094 Z M 18.558594 34.925781 C 18.300781 35.40625 18.082031 35.839844 17.863281 36.320312 C 18.082031 35.839844 18.34375 35.40625 18.558594 34.925781 Z M 17.820312 36.363281 L 32.207031 50.757812 L 16.125 66.941406 C 14.648438 62.808594 13.867188 58.328125 13.867188 53.675781 C 13.867188 49.019531 15.300781 41.582031 17.820312 36.363281 Z M 53.464844 93.296875 C 38.554688 93.296875 25.558594 85.035156 18.820312 72.855469 L 36.597656 54.980469 C 41.292969 58.9375 47.203125 61.113281 53.464844 61.113281 C 59.722656 61.113281 65.589844 58.980469 70.285156 55.066406 L 88.105469 72.898438 C 81.371094 85.078125 68.371094 93.296875 53.464844 93.296875 Z M 53.464844 93.296875 "/>
<path style=" stroke:none;fill-rule:nonzero;fill:rgb(100%,43.137255%,47.450981%);fill-opacity:1;" d="M 67.722656 49.105469 L 85.890625 30.925781 C 78.71875 20.703125 66.851562 14.003906 53.464844 14.003906 C 40.074219 14.003906 28.167969 20.703125 21.039062 30.925781 L 39.207031 49.105469 C 47.074219 56.980469 59.898438 56.980469 67.765625 49.105469 Z M 67.722656 49.105469 "/>
<path style=" stroke:none;fill-rule:nonzero;fill:rgb(100%,100%,100%);fill-opacity:1;" d="M 17.820312 36.363281 C 15.257812 41.582031 13.867188 47.453125 13.867188 53.675781 C 13.867188 59.894531 14.691406 62.808594 16.125 66.941406 L 32.207031 50.757812 Z M 17.820312 36.363281 "/>
<path style=" stroke:none;fill-rule:nonzero;fill:rgb(100%,100%,100%);fill-opacity:1;" d="M 90.757812 66.941406 C 92.234375 62.765625 93.0625 58.328125 93.0625 53.628906 C 93.0625 48.933594 91.628906 41.539062 89.105469 36.320312 L 74.675781 50.757812 L 90.800781 66.898438 Z M 90.757812 66.941406 "/>
<path style=" stroke:none;fill-rule:nonzero;fill:rgb(100%,100%,100%);fill-opacity:1;" d="M 88.105469 72.855469 L 70.285156 55.023438 C 65.589844 58.9375 59.722656 61.066406 53.464844 61.066406 C 47.203125 61.066406 41.292969 58.894531 36.597656 54.933594 L 18.820312 72.8125 C 25.558594 84.992188 38.554688 93.253906 53.464844 93.253906 C 68.371094 93.253906 81.371094 85.035156 88.105469 72.855469 Z M 88.105469 72.855469 "/>
<path style=" stroke:none;fill-rule:nonzero;fill:rgb(100%,100%,100%);fill-opacity:1;" d="M 161.695312 76.988281 L 151.480469 76.988281 L 151.480469 22.097656 L 191.558594 22.097656 L 191.558594 30.707031 L 161.695312 30.707031 Z M 160.914062 47.410156 L 188.210938 47.410156 L 188.210938 55.890625 L 160.914062 55.890625 Z M 160.914062 47.410156 "/>
<path style=" stroke:none;fill-rule:nonzero;fill:rgb(100%,100%,100%);fill-opacity:1;" d="M 199.511719 76.988281 L 199.511719 22.097656 L 222.113281 22.097656 C 226.980469 22.097656 231.15625 22.878906 234.632812 24.402344 C 238.109375 25.921875 240.804688 28.183594 242.671875 31.097656 C 244.542969 34.015625 245.5 37.535156 245.5 41.625 C 245.5 45.714844 244.542969 49.105469 242.671875 51.976562 C 240.804688 54.847656 238.109375 57.066406 234.632812 58.632812 C 231.15625 60.199219 226.980469 60.980469 222.113281 60.980469 L 205.25 60.980469 L 209.726562 56.414062 L 209.726562 76.988281 Z M 209.683594 57.546875 L 205.207031 52.585938 L 221.59375 52.585938 C 226.070312 52.585938 229.460938 51.628906 231.761719 49.671875 C 234.023438 47.757812 235.152344 45.0625 235.152344 41.582031 C 235.152344 38.101562 234.023438 35.449219 231.761719 33.535156 C 229.503906 31.621094 226.113281 30.664062 221.59375 30.664062 L 205.207031 30.664062 L 209.683594 25.664062 Z M 235.414062 76.988281 L 221.550781 57.066406 L 232.457031 57.066406 L 246.410156 76.988281 Z M 235.414062 76.988281 "/>
<path style=" stroke:none;fill-rule:nonzero;fill:rgb(100%,100%,100%);fill-opacity:1;" d="M 265.058594 68.375 L 296.050781 68.375 L 296.050781 76.988281 L 254.886719 76.988281 L 254.886719 22.097656 L 294.964844 22.097656 L 294.964844 30.707031 L 265.101562 30.707031 L 265.101562 68.375 Z M 264.277344 44.929688 L 291.574219 44.929688 L 291.574219 53.324219 L 264.277344 53.324219 Z M 264.277344 44.929688 "/>
<path style=" stroke:none;fill-rule:nonzero;fill:rgb(100%,100%,100%);fill-opacity:1;" d="M 315.609375 68.375 L 346.601562 68.375 L 346.601562 76.988281 L 305.4375 76.988281 L 305.4375 22.097656 L 345.515625 22.097656 L 345.515625 30.707031 L 315.652344 30.707031 L 315.652344 68.375 Z M 314.828125 44.929688 L 342.125 44.929688 L 342.125 53.324219 L 314.828125 53.324219 Z M 314.828125 44.929688 "/>
<path style=" stroke:none;fill-rule:nonzero;fill:rgb(100%,100%,100%);fill-opacity:1;" d="M 375.679688 76.988281 L 375.679688 22.097656 L 384.070312 22.097656 L 408.0625 62.199219 L 403.671875 62.199219 L 427.277344 22.097656 L 435.664062 22.097656 L 435.839844 77.03125 L 426.058594 77.03125 L 426.058594 37.234375 L 428.015625 37.234375 L 408.105469 70.8125 L 403.5 70.8125 L 383.113281 37.234375 L 385.460938 37.234375 L 385.460938 77.03125 L 375.726562 77.03125 Z M 375.679688 76.988281 "/>
<path style=" stroke:none;fill-rule:nonzero;fill:rgb(100%,100%,100%);fill-opacity:1;" d="M 440.835938 76.988281 L 465.527344 22.050781 L 475.566406 22.050781 L 500.34375 76.988281 L 489.605469 76.988281 L 468.4375 27.488281 L 472.523438 27.488281 L 451.269531 76.988281 Z M 452.183594 64.285156 L 455.007812 56.285156 L 484.566406 56.285156 L 487.304688 64.285156 Z M 452.183594 64.285156 "/>
<path style=" stroke:none;fill-rule:nonzero;fill:rgb(100%,100%,100%);fill-opacity:1;" d="M 505.339844 76.988281 L 505.339844 22.097656 L 515.554688 22.097656 L 515.554688 77.03125 L 505.339844 77.03125 Z M 505.339844 76.988281 "/>
<path style=" stroke:none;fill-rule:nonzero;fill:rgb(100%,100%,100%);fill-opacity:1;" d="M 528.421875 76.988281 L 528.421875 22.097656 L 538.636719 22.097656 L 538.636719 68.375 L 567.324219 68.375 L 567.324219 76.988281 Z M 528.421875 76.988281 "/>
<path style=" stroke:none;fill-rule:nonzero;fill:rgb(100%,43.137255%,47.450981%);fill-opacity:1;" d="M 610.097656 77.769531 C 605.792969 77.769531 601.707031 77.160156 597.839844 75.945312 C 593.925781 74.726562 590.839844 73.117188 588.449219 71.203125 L 591.96875 63.285156 C 594.1875 65.027344 596.882812 66.460938 600.140625 67.59375 C 603.402344 68.722656 606.707031 69.332031 610.097656 69.332031 C 613.488281 69.332031 615.3125 69.027344 617.09375 68.375 C 618.875 67.765625 620.179688 66.898438 621.007812 65.808594 C 621.832031 64.722656 622.265625 63.503906 622.265625 62.15625 C 622.265625 60.808594 621.660156 59.15625 620.484375 58.109375 C 619.265625 57.109375 617.746094 56.285156 615.832031 55.675781 C 613.921875 55.066406 611.792969 54.542969 609.488281 54.023438 C 607.140625 53.542969 604.835938 52.890625 602.488281 52.195312 C 600.140625 51.457031 598.011719 50.542969 596.101562 49.410156 C 594.1875 48.28125 592.621094 46.800781 591.449219 44.886719 C 590.273438 42.972656 589.667969 40.582031 589.667969 37.667969 C 589.667969 34.753906 590.449219 31.96875 592.058594 29.445312 C 593.664062 26.96875 596.101562 24.964844 599.359375 23.488281 C 602.621094 22.007812 606.75 21.269531 611.792969 21.269531 C 616.832031 21.269531 618.355469 21.703125 621.570312 22.53125 C 624.832031 23.355469 627.65625 24.574219 630.046875 26.140625 L 626.832031 34.058594 C 624.351562 32.578125 621.832031 31.492188 619.222656 30.796875 C 616.617188 30.097656 614.09375 29.75 611.703125 29.75 C 609.3125 29.75 606.664062 30.097656 604.878906 30.75 C 603.097656 31.449219 601.792969 32.316406 601.011719 33.449219 C 600.1875 34.578125 599.792969 35.796875 599.792969 37.1875 C 599.792969 38.582031 600.402344 40.191406 601.578125 41.234375 C 602.75 42.234375 604.316406 43.0625 606.183594 43.625 C 608.097656 44.191406 610.226562 44.757812 612.574219 45.277344 C 614.921875 45.800781 617.269531 46.410156 619.570312 47.105469 C 621.875 47.800781 624.003906 48.714844 625.917969 49.847656 C 627.832031 50.976562 629.394531 52.457031 630.570312 54.328125 C 631.742188 56.195312 632.351562 58.546875 632.351562 61.417969 C 632.351562 64.285156 631.570312 67.070312 629.960938 69.550781 C 628.351562 72.027344 625.917969 74.03125 622.613281 75.507812 C 619.3125 76.988281 615.183594 77.726562 610.140625 77.726562 Z M 610.097656 77.769531 "/>
<path style=" stroke:none;fill-rule:nonzero;fill:rgb(100%,43.137255%,47.450981%);fill-opacity:1;" d="M 640.4375 76.988281 L 640.4375 22.097656 L 648.824219 22.097656 L 672.816406 62.199219 L 668.429688 62.199219 L 692.03125 22.097656 L 700.417969 22.097656 L 700.59375 77.03125 L 690.8125 77.03125 L 690.8125 37.234375 L 692.769531 37.234375 L 672.863281 70.8125 L 668.253906 70.8125 L 647.867188 37.234375 L 650.214844 37.234375 L 650.214844 77.03125 L 640.480469 77.03125 Z M 640.4375 76.988281 "/>
<path style=" stroke:none;fill-rule:nonzero;fill:rgb(100%,43.137255%,47.450981%);fill-opacity:1;" d="M 724.5 76.988281 L 724.5 30.707031 L 706.289062 30.707031 L 706.289062 22.097656 L 752.882812 22.097656 L 752.882812 30.707031 L 734.671875 30.707031 L 734.671875 76.988281 L 724.457031 76.988281 Z M 724.5 76.988281 "/>
<path style=" stroke:none;fill-rule:nonzero;fill:rgb(100%,43.137255%,47.450981%);fill-opacity:1;" d="M 758.621094 76.988281 L 758.621094 22.097656 L 781.222656 22.097656 C 786.09375 22.097656 790.265625 22.878906 793.742188 24.402344 C 797.21875 25.921875 799.914062 28.183594 801.785156 31.097656 C 803.652344 34.015625 804.609375 37.535156 804.609375 41.625 C 804.609375 45.714844 803.652344 49.105469 801.785156 52.019531 C 799.914062 54.933594 797.21875 57.152344 793.742188 58.761719 C 790.265625 60.371094 786.09375 61.15625 781.222656 61.15625 L 764.359375 61.15625 L 768.835938 56.457031 L 768.835938 77.03125 L 758.621094 77.03125 Z M 768.792969 57.546875 L 764.316406 52.542969 L 780.703125 52.542969 C 785.179688 52.542969 788.570312 51.585938 790.875 49.671875 C 793.132812 47.757812 794.265625 45.0625 794.265625 41.625 C 794.265625 38.1875 793.132812 35.492188 790.875 33.578125 C 788.613281 31.664062 785.222656 30.707031 780.703125 30.707031 L 764.316406 30.707031 L 768.792969 25.707031 Z M 768.792969 57.546875 "/>
</g>
</svg>
