<?xml version="1.0" encoding="UTF-8"?>
<svg xmlns="http://www.w3.org/2000/svg" xmlns:xlink="http://www.w3.org/1999/xlink" width="290px" height="56px" viewBox="0 0 291 56" version="1.1">
<defs>
<clipPath id="clip1">
  <path d="M 0 0 L 56 0 L 56 56 L 0 56 Z M 0 0 "/>
</clipPath>
<clipPath id="clip2">
  <path d="M 29.199219 34.191406 C 27.894531 35.171875 26.589844 36.472656 24.894531 35.367188 C 22.941406 33.867188 20.921875 32.367188 18.964844 30.867188 C 18.640625 30.671875 18.378906 30.410156 18.054688 30.214844 C 17.921875 30.347656 17.726562 30.542969 17.597656 30.671875 C 13.554688 34.976562 9.582031 39.210938 5.539062 43.515625 C 4.886719 44.230469 4.234375 44.949219 3.519531 45.667969 L 39.691406 55.378906 C 42.167969 56.03125 44.773438 54.53125 45.425781 52.054688 L 47.511719 44.230469 C 45.101562 41.625 42.6875 39.082031 40.210938 36.472656 C 38.386719 34.585938 36.628906 32.628906 34.800781 30.738281 C 34.671875 30.609375 34.476562 30.410156 34.28125 30.214844 C 32.71875 31.519531 30.957031 32.824219 29.199219 34.191406 M 0.128906 39.863281 C 0.0664062 40.191406 0 40.582031 0 40.90625 C 0.128906 40.777344 0.261719 40.582031 0.457031 40.449219 C 3.128906 37.582031 5.867188 34.714844 8.539062 31.847656 C 10.167969 30.085938 11.796875 28.390625 13.425781 26.632812 C 10.753906 24.609375 8.082031 22.523438 5.34375 20.503906 Z M 54.875 14.636719 C 53.050781 16.070312 51.160156 17.4375 49.335938 18.875 C 47.054688 20.632812 44.773438 22.328125 42.492188 24.089844 C 42.882812 24.480469 43.273438 24.871094 43.601562 25.261719 C 45.949219 27.804688 48.292969 30.28125 50.703125 32.824219 L 55.265625 15.746094 C 55.398438 15.222656 55.460938 14.765625 55.398438 14.246094 C 55.203125 14.375 55.070312 14.503906 54.875 14.636719 M 9.90625 3.554688 L 8.210938 9.8125 C 12.382812 13.007812 16.554688 16.136719 20.726562 19.328125 C 22.746094 20.894531 24.765625 22.394531 26.785156 23.957031 C 27.371094 24.414062 27.960938 24.871094 28.609375 25.328125 C 28.808594 25.457031 29.328125 25.71875 29.132812 25.847656 C 36.238281 20.4375 43.40625 15.027344 50.507812 9.550781 L 15.707031 0.230469 C 15.316406 0.0976562 14.859375 0.0976562 14.46875 0.0976562 C 12.316406 0.0976562 10.429688 1.46875 9.90625 3.554688 "/>
</clipPath>
<linearGradient id="linear0" gradientUnits="userSpaceOnUse" x1="-262.7826" y1="700.974" x2="-261.7293" y2="700.974" gradientTransform="matrix(29.675678,51.412178,51.399855,-29.682793,-28219.717375,34317.891751)">
<stop offset="0" style="stop-color:rgb(5.490196%,49.803922%,75.686275%);stop-opacity:1;"/>
<stop offset="0.1672" style="stop-color:rgb(5.490196%,49.803922%,75.686275%);stop-opacity:1;"/>
<stop offset="0.3194" style="stop-color:rgb(5.098039%,45.490196%,71.372549%);stop-opacity:1;"/>
<stop offset="0.8374" style="stop-color:rgb(4.313725%,32.54902%,57.647059%);stop-opacity:1;"/>
<stop offset="1" style="stop-color:rgb(4.313725%,32.54902%,57.647059%);stop-opacity:1;"/>
</linearGradient>
</defs>
<g id="surface1">
<path style=" stroke:none;fill-rule:nonzero;fill:rgb(28.235294%,31.372549%,33.72549%);fill-opacity:1;" d="M 84.335938 43.777344 C 84.988281 44.296875 85.050781 45.273438 84.53125 45.925781 C 83.355469 47.296875 81.597656 48.078125 79.835938 48.078125 C 76.382812 48.078125 73.582031 45.273438 73.582031 41.886719 L 73.582031 25.195312 L 72.210938 25.195312 C 71.363281 25.195312 70.714844 24.546875 70.714844 23.632812 C 70.714844 22.785156 71.363281 22.132812 72.210938 22.132812 L 73.582031 22.132812 L 73.582031 17.242188 C 73.582031 16.394531 74.296875 15.679688 75.144531 15.679688 C 75.992188 15.679688 76.710938 16.332031 76.710938 17.242188 L 76.710938 22.132812 L 82.117188 22.132812 C 82.964844 22.132812 83.683594 22.785156 83.683594 23.632812 C 83.683594 24.480469 83.03125 25.195312 82.117188 25.195312 L 76.644531 25.195312 L 76.644531 41.886719 C 76.644531 43.644531 78.078125 45.015625 79.835938 45.015625 C 80.75 45.015625 81.597656 44.625 82.183594 43.90625 C 82.707031 43.253906 83.683594 43.1875 84.335938 43.777344 "/>
<path style=" stroke:none;fill-rule:nonzero;fill:rgb(28.235294%,31.372549%,33.72549%);fill-opacity:1;" d="M 108.1875 23.632812 L 108.1875 46.515625 C 108.1875 47.359375 107.535156 48.078125 106.625 48.078125 C 105.777344 48.078125 105.058594 47.425781 105.058594 46.515625 L 105.058594 44.820312 C 103.167969 46.839844 100.433594 48.078125 97.433594 48.078125 C 94.4375 48.078125 91.828125 46.90625 89.941406 44.753906 C 88.179688 42.734375 87.136719 39.929688 87.136719 36.996094 L 87.136719 23.632812 C 87.136719 22.785156 87.789062 22.132812 88.703125 22.132812 C 89.546875 22.132812 90.265625 22.785156 90.265625 23.632812 L 90.265625 36.996094 C 90.265625 41.625 93.261719 45.015625 97.433594 45.015625 C 101.734375 45.015625 105.058594 41.496094 105.058594 36.996094 L 105.058594 23.632812 C 105.058594 22.785156 105.710938 22.132812 106.625 22.132812 C 107.535156 22.132812 108.1875 22.851562 108.1875 23.632812 "/>
<path style=" stroke:none;fill-rule:nonzero;fill:rgb(28.235294%,31.372549%,33.72549%);fill-opacity:1;" d="M 123.570312 23.632812 C 123.570312 24.480469 122.917969 25.195312 122.003906 25.195312 C 117.769531 25.195312 114.574219 28.652344 114.574219 33.214844 L 114.574219 46.578125 C 114.574219 47.425781 113.921875 48.144531 113.011719 48.144531 C 112.164062 48.144531 111.511719 47.492188 111.511719 46.578125 L 111.511719 23.699219 C 111.511719 22.851562 112.164062 22.199219 113.011719 22.199219 C 113.859375 22.199219 114.574219 22.851562 114.574219 23.699219 L 114.574219 25.261719 C 116.464844 23.371094 119.007812 22.199219 122.003906 22.199219 C 122.917969 22.132812 123.570312 22.851562 123.570312 23.632812 "/>
<path style=" stroke:none;fill-rule:nonzero;fill:rgb(28.235294%,31.372549%,33.72549%);fill-opacity:1;" d="M 150.941406 35.105469 C 150.941406 42.472656 145.664062 48.078125 138.6875 48.078125 C 134.972656 48.078125 131.714844 46.515625 129.5 43.839844 L 129.5 46.515625 C 129.5 47.359375 128.78125 48.078125 127.9375 48.078125 C 127.089844 48.078125 126.371094 47.425781 126.371094 46.515625 L 126.371094 15.679688 C 126.371094 14.832031 127.023438 14.113281 127.9375 14.113281 C 128.78125 14.113281 129.5 14.765625 129.5 15.679688 L 129.5 26.304688 C 131.714844 23.699219 134.910156 22.132812 138.6875 22.132812 C 145.664062 22.132812 150.941406 27.738281 150.941406 35.105469 M 147.878906 35.105469 C 147.878906 29.433594 143.96875 25.195312 138.6875 25.195312 C 133.476562 25.195312 129.5 29.5 129.5 35.105469 C 129.5 40.710938 133.410156 45.015625 138.6875 45.015625 C 143.96875 45.015625 147.878906 40.710938 147.878906 35.105469 "/>
<path style=" stroke:none;fill-rule:nonzero;fill:rgb(28.235294%,31.372549%,33.72549%);fill-opacity:1;" d="M 166.324219 48.078125 C 159.152344 48.078125 153.351562 42.277344 153.351562 35.105469 C 153.351562 27.933594 159.152344 22.132812 166.324219 22.132812 C 173.492188 22.132812 179.292969 27.933594 179.292969 35.105469 C 179.292969 42.277344 173.492188 48.078125 166.324219 48.078125 M 166.324219 25.195312 C 160.847656 25.195312 156.417969 29.628906 156.417969 35.105469 C 156.417969 40.582031 160.847656 45.015625 166.324219 45.015625 C 171.796875 45.015625 176.230469 40.582031 176.230469 35.105469 C 176.230469 29.628906 171.796875 25.195312 166.324219 25.195312 "/>
<path style=" stroke:none;fill-rule:nonzero;fill:rgb(12.156863%,44.313725%,71.764706%);fill-opacity:1;" d="M 192.652344 48.078125 C 188.417969 48.078125 185.875 46.316406 184.441406 44.882812 C 182.679688 42.992188 181.640625 40.515625 181.640625 37.972656 C 181.640625 36.410156 182.878906 35.171875 184.441406 35.171875 C 186.003906 35.171875 187.242188 36.410156 187.242188 37.972656 C 187.242188 39.667969 188.417969 42.539062 192.652344 42.539062 C 196.953125 42.539062 198.0625 39.667969 198.0625 37.972656 C 198.0625 35.429688 196.695312 34.648438 192 33.34375 C 189.914062 32.695312 187.699219 32.105469 185.941406 30.867188 C 183.527344 29.238281 182.355469 26.957031 182.355469 23.957031 C 182.355469 21.546875 183.332031 19.199219 184.960938 17.503906 C 186.332031 16.136719 188.742188 14.503906 192.71875 14.503906 C 196.695312 14.503906 199.105469 16.136719 200.472656 17.503906 C 202.167969 19.265625 203.082031 21.613281 203.082031 23.957031 C 203.082031 25.523438 201.84375 26.761719 200.277344 26.761719 C 198.714844 26.761719 197.476562 25.523438 197.476562 23.957031 C 197.476562 22.523438 196.5 20.046875 192.71875 20.046875 C 189.003906 20.046875 187.960938 22.523438 187.960938 23.957031 C 187.960938 25.847656 188.675781 26.566406 193.566406 28 C 195.78125 28.652344 198.0625 29.304688 199.953125 30.609375 C 202.429688 32.300781 203.667969 34.84375 203.667969 37.972656 C 203.667969 40.515625 202.691406 42.992188 200.863281 44.882812 C 199.496094 46.316406 196.890625 48.078125 192.652344 48.078125 "/>
<path style=" stroke:none;fill-rule:nonzero;fill:rgb(12.156863%,44.313725%,71.764706%);fill-opacity:1;" d="M 233.648438 48.078125 C 232.082031 48.078125 230.84375 46.839844 230.84375 45.273438 L 230.84375 26.304688 L 223.285156 37.519531 C 222.761719 38.300781 221.914062 38.757812 221.003906 38.757812 C 220.027344 38.757812 219.179688 38.300781 218.65625 37.519531 L 211.097656 26.304688 L 211.097656 45.273438 C 211.097656 46.839844 209.859375 48.078125 208.292969 48.078125 C 206.730469 48.078125 205.492188 46.839844 205.492188 45.273438 L 205.492188 17.179688 C 205.492188 16.003906 206.339844 14.898438 207.449219 14.570312 C 208.621094 14.179688 209.925781 14.636719 210.574219 15.679688 L 220.9375 31.0625 L 231.234375 15.679688 C 231.886719 14.703125 233.125 14.179688 234.363281 14.570312 C 235.539062 14.898438 236.320312 16.003906 236.320312 17.179688 L 236.320312 45.273438 C 236.449219 46.839844 235.144531 48.078125 233.648438 48.078125 "/>
<path style=" stroke:none;fill-rule:nonzero;fill:rgb(12.156863%,44.313725%,71.764706%);fill-opacity:1;" d="M 264.800781 17.179688 C 264.800781 18.742188 263.5625 19.980469 261.996094 19.980469 L 254.371094 19.980469 L 254.371094 45.339844 C 254.371094 46.90625 253.132812 48.144531 251.570312 48.144531 C 250.003906 48.144531 248.765625 46.90625 248.765625 45.339844 L 248.765625 19.980469 L 241.140625 19.980469 C 239.578125 19.980469 238.339844 18.742188 238.339844 17.179688 C 238.339844 15.613281 239.578125 14.375 241.140625 14.375 L 261.996094 14.375 C 263.5625 14.375 264.800781 15.613281 264.800781 17.179688 "/>
<path style=" stroke:none;fill-rule:nonzero;fill:rgb(12.156863%,44.313725%,71.764706%);fill-opacity:1;" d="M 291 26.5 C 291 33.28125 285.527344 38.757812 278.8125 38.757812 L 272.230469 38.757812 L 272.230469 45.210938 C 272.230469 46.773438 270.992188 48.011719 269.425781 48.011719 C 267.863281 48.011719 266.625 46.773438 266.625 45.210938 L 266.625 17.113281 C 266.625 15.550781 267.863281 14.308594 269.425781 14.308594 L 278.8125 14.308594 C 285.527344 14.308594 291 19.785156 291 26.5 M 285.460938 26.5 C 285.460938 22.851562 282.460938 19.917969 278.8125 19.917969 L 272.230469 19.917969 L 272.230469 33.085938 L 278.8125 33.085938 C 282.460938 33.148438 285.460938 30.214844 285.460938 26.5 "/>
<g clip-path="url(#clip1)" clip-rule="nonzero">
<g clip-path="url(#clip2)" clip-rule="nonzero">
<path style=" stroke:none;fill-rule:nonzero;fill:url(#linear0);" d="M 41.582031 -23.890625 L 79.640625 42.015625 L 13.882812 80.019531 L -24.179688 14.050781 Z M 41.582031 -23.890625 "/>
</g>
</g>
</g>
</svg>
